<?xml version="1.0" encoding="UTF-8" standalone="no"?><!DOCTYPE svg PUBLIC "-//W3C//DTD SVG 1.1//EN" "http://www.w3.org/Graphics/SVG/1.1/DTD/svg11.dtd"><svg width="100%" height="100%" viewBox="0 0 200 200" version="1.1" xmlns="http://www.w3.org/2000/svg" xmlns:xlink="http://www.w3.org/1999/xlink" xml:space="preserve" xmlns:serif="http://www.serif.com/" style="fill-rule:evenodd;clip-rule:evenodd;stroke-linejoin:round;stroke-miterlimit:1.41421;"><rect x="0" y="0" width="200" height="200" style="fill:#700000;"/><g><g><path d="M237.65,242.57l28.062,-28.505l-53.447,-52.616l-28.062,28.505l53.447,52.616Z" style="fill:#77313c;"/><path d="M236.627,227.067l14.031,-14.252l-35.631,-35.077l-14.031,14.252l35.631,35.077Z" style="fill:#8e3847;"/></g></g><g><g><path d="M218.354,119.551l28.062,-28.505l-53.447,-52.616l-28.062,28.505l53.447,52.616Z" style="fill:#77313c;"/><path d="M217.331,104.049l14.031,-14.252l-35.631,-35.078l-14.031,14.253l35.631,35.077Z" style="fill:#8e3847;"/></g><g><path d="M147.092,49.397l28.062,-28.505l-53.447,-52.616l-28.062,28.505l53.447,52.616Z" style="fill:#77313c;"/><path d="M146.069,33.895l14.031,-14.253l-35.631,-35.077l-14.031,14.252l35.631,35.078Z" style="fill:#8e3847;"/></g></g><g><g><path d="M21.885,32.899l28.062,-28.505l-53.447,-52.616l-28.062,28.505l53.447,52.616Z" style="fill:#77313c;"/><path d="M20.862,17.397l14.031,-14.252l-35.631,-35.078l-14.031,14.253l35.631,35.077Z" style="fill:#8e3847;"/></g><g><path d="M164.379,173.178l28.062,-28.505l-53.447,-52.616l-28.062,28.505l53.447,52.616Z" style="fill:#77313c;"/><path d="M163.356,157.675l14.031,-14.252l-35.631,-35.077l-14.031,14.252l35.631,35.077Z" style="fill:#8e3847;"/></g><g><path d="M93.116,103.023l28.062,-28.505l-53.447,-52.616l-28.061,28.505l53.446,52.616Z" style="fill:#77313c;"/><path d="M92.094,87.521l14.03,-14.253l-35.631,-35.077l-14.031,14.253l35.632,35.077Z" style="fill:#8e3847;"/></g></g><g><g><path d="M84.303,40.372l28.062,-28.505l-53.447,-52.616l-28.062,28.505l53.447,52.616Z" style="fill:#77313c;"/><path d="M83.28,24.87l14.031,-14.253l-35.631,-35.077l-14.031,14.252l35.631,35.078Z" style="fill:#8e3847;"/></g><g><path d="M226.796,180.65l28.062,-28.505l-53.447,-52.616l-28.061,28.505l53.446,52.616Z" style="fill:#77313c;"/><path d="M225.774,165.148l14.031,-14.253l-35.632,-35.077l-14.031,14.253l35.632,35.077Z" style="fill:#8e3847;"/></g><g><path d="M155.534,110.496l28.062,-28.505l-53.447,-52.616l-28.062,28.505l53.447,52.616Z" style="fill:#77313c;"/><path d="M154.511,94.993l14.031,-14.252l-35.631,-35.077l-14.031,14.252l35.631,35.077Z" style="fill:#8e3847;"/></g></g><g><g><path d="M31.995,94.877l28.062,-28.505l-53.447,-52.616l-28.062,28.505l53.447,52.616Z" style="fill:#77313c;"/><path d="M30.972,79.375l14.031,-14.252l-35.631,-35.078l-14.031,14.253l35.631,35.077Z" style="fill:#8e3847;"/></g><g><path d="M174.489,235.156l28.062,-28.505l-53.447,-52.616l-28.062,28.505l53.447,52.616Z" style="fill:#77313c;"/><path d="M173.466,219.653l14.031,-14.252l-35.631,-35.077l-14.031,14.252l35.631,35.077Z" style="fill:#8e3847;"/></g><g><path d="M103.226,165.001l28.062,-28.505l-53.447,-52.616l-28.062,28.505l53.447,52.616Z" style="fill:#77313c;"/><path d="M102.203,149.499l14.031,-14.253l-35.631,-35.077l-14.031,14.253l35.631,35.077Z" style="fill:#8e3847;"/></g></g><g><g><path d="M205.204,50.715l28.062,-28.505l-53.447,-52.616l-28.062,28.505l53.447,52.616Z" style="fill:#77313c;"/><path d="M204.181,35.213l14.031,-14.252l-35.631,-35.078l-14.031,14.253l35.631,35.077Z" style="fill:#8e3847;"/></g></g><g><g><path d="M112.123,227.244l28.062,-28.505l-53.447,-52.616l-28.061,28.505l53.446,52.616Z" style="fill:#77313c;"/><path d="M111.101,211.741l14.03,-14.252l-35.631,-35.077l-14.031,14.252l35.632,35.077Z" style="fill:#8e3847;"/></g><g><path d="M40.861,157.089l28.062,-28.505l-53.447,-52.616l-28.062,28.505l53.447,52.616Z" style="fill:#77313c;"/><path d="M39.838,141.587l14.031,-14.253l-35.631,-35.077l-14.031,14.253l35.631,35.077Z" style="fill:#8e3847;"/></g></g><g><g><path d="M-23.829,147.185l28.062,-28.505l-53.447,-52.616l-28.062,28.505l53.447,52.616Z" style="fill:#77313c;"/></g><g><path d="M47.402,217.309l28.062,-28.505l-53.447,-52.616l-28.062,28.505l53.447,52.616Z" style="fill:#77313c;"/><path d="M46.379,201.807l14.031,-14.253l-35.631,-35.077l-14.031,14.252l35.631,35.078Z" style="fill:#8e3847;"/></g></g></svg>