<?xml version="1.0" encoding="UTF-8" standalone="no"?><!DOCTYPE svg PUBLIC "-//W3C//DTD SVG 1.1//EN" "http://www.w3.org/Graphics/SVG/1.1/DTD/svg11.dtd"><svg width="100%" height="100%" viewBox="0 0 200 200" version="1.1" xmlns="http://www.w3.org/2000/svg" xmlns:xlink="http://www.w3.org/1999/xlink" xml:space="preserve" xmlns:serif="http://www.serif.com/" style="fill-rule:evenodd;clip-rule:evenodd;"><rect x="0.093" y="-0.013" width="200" height="200" style="fill:#d1c08e;"/><g><path d="M32.613,32.617c0,-1.164 -0.945,-2.109 -2.109,-2.109l-4.216,0c-1.164,0 -2.109,0.945 -2.109,2.109l0,16.265c0,1.163 0.945,2.108 2.109,2.108l4.216,0c1.164,0 2.109,-0.945 2.109,-2.108l0,-16.265Z" style="fill:#659d63;"/><path d="M39.445,45.456c0,-1.031 -0.836,-1.867 -1.867,-1.867l-11.446,0c-1.03,0 -1.867,0.836 -1.867,1.867l0,3.735c0,1.031 0.837,1.867 1.867,1.867l11.446,0c1.031,0 1.867,-0.836 1.867,-1.867l0,-3.735Z" style="fill:#659d63;"/><path d="M58.222,48.297c0,-0.997 -0.809,-1.807 -1.807,-1.807l-3.614,0c-0.998,0 -1.807,0.81 -1.807,1.807l0,15.904c0,0.997 0.809,1.807 1.807,1.807l3.614,0c0.998,0 1.807,-0.81 1.807,-1.807l0,-15.904Z" style="fill:#659d63;"/><path d="M58.263,62.763c0,-1.098 -0.891,-1.988 -1.988,-1.988l-8.072,0c-1.097,0 -1.988,0.89 -1.988,1.988l0,3.975c0,1.098 0.891,1.988 1.988,1.988l8.072,0c1.097,0 1.988,-0.89 1.988,-1.988l0,-3.975Z" style="fill:#659d63;"/><path d="M47.941,29.788c0,-1.662 -1.35,-3.012 -3.013,-3.012l-6.024,0c-1.662,0 -3.012,1.35 -3.012,3.012l0,42.651c0,1.662 1.35,3.012 3.012,3.012l6.024,0c1.663,0 3.013,-1.35 3.013,-3.012l0,-42.651Z" style="fill:#659d63;"/></g><g><path d="M41.254,128.17c0,-1.164 -0.945,-2.108 -2.109,-2.108l-4.217,0c-1.163,0 -2.108,0.944 -2.108,2.108l0,16.265c0,1.164 0.945,2.109 2.108,2.109l4.217,0c1.164,0 2.109,-0.945 2.109,-2.109l0,-16.265Z" style="fill:#659d63;"/><path d="M48.086,141.009c0,-1.03 -0.836,-1.867 -1.867,-1.867l-11.446,0c-1.031,0 -1.867,0.837 -1.867,1.867l0,3.735c0,1.031 0.836,1.868 1.867,1.868l11.446,0c1.031,0 1.867,-0.837 1.867,-1.868l0,-3.735Z" style="fill:#659d63;"/><path d="M66.863,143.851c0,-0.998 -0.809,-1.808 -1.807,-1.808l-3.614,0c-0.998,0 -1.808,0.81 -1.808,1.808l0,15.903c0,0.998 0.81,1.807 1.808,1.807l3.614,0c0.998,0 1.807,-0.809 1.807,-1.807l0,-15.903Z" style="fill:#659d63;"/><path d="M66.904,158.316c0,-1.097 -0.891,-1.988 -1.988,-1.988l-8.072,0c-1.097,0 -1.988,0.891 -1.988,1.988l0,3.976c0,1.097 0.891,1.988 1.988,1.988l8.072,0c1.097,0 1.988,-0.891 1.988,-1.988l0,-3.976Z" style="fill:#659d63;"/><path d="M56.581,125.342c0,-1.663 -1.349,-3.012 -3.012,-3.012l-6.024,0c-1.662,0 -3.012,1.349 -3.012,3.012l0,42.65c0,1.663 1.35,3.012 3.012,3.012l6.024,0c1.663,0 3.012,-1.349 3.012,-3.012l0,-42.65Z" style="fill:#659d63;"/></g><g><path d="M129.608,10.346c0,-1.163 -0.944,-2.108 -2.108,-2.108l-4.217,0c-1.164,0 -2.108,0.945 -2.108,2.108l0,16.265c0,1.164 0.944,2.109 2.108,2.109l4.217,0c1.164,0 2.108,-0.945 2.108,-2.109l0,-16.265Z" style="fill:#659d63;"/><path d="M136.441,23.186c0,-1.031 -0.837,-1.868 -1.868,-1.868l-11.445,0c-1.031,0 -1.868,0.837 -1.868,1.868l0,3.735c0,1.03 0.837,1.867 1.868,1.867l11.445,0c1.031,0 1.868,-0.837 1.868,-1.867l0,-3.735Z" style="fill:#659d63;"/><path d="M155.218,26.027c0,-0.998 -0.81,-1.807 -1.807,-1.807l-3.615,0c-0.997,0 -1.807,0.809 -1.807,1.807l0,15.904c0,0.997 0.81,1.807 1.807,1.807l3.615,0c0.997,0 1.807,-0.81 1.807,-1.807l0,-15.904Z" style="fill:#659d63;"/><path d="M155.259,40.492c0,-1.097 -0.891,-1.988 -1.988,-1.988l-8.073,0c-1.097,0 -1.988,0.891 -1.988,1.988l0,3.976c0,1.097 0.891,1.988 1.988,1.988l8.073,0c1.097,0 1.988,-0.891 1.988,-1.988l0,-3.976Z" style="fill:#659d63;"/><path d="M144.936,7.518c0,-1.662 -1.35,-3.012 -3.012,-3.012l-6.024,0c-1.663,0 -3.012,1.35 -3.012,3.012l0,42.651c0,1.662 1.349,3.012 3.012,3.012l6.024,0c1.662,0 3.012,-1.35 3.012,-3.012l0,-42.651Z" style="fill:#659d63;"/></g><clipPath id="_clip1"><rect id="Snake_silhouette" x="70.431" y="75.277" width="29.183" height="37.104"/></clipPath><g clip-path="url(#_clip1)"><g id="g2460"><path id="path2451" d="M72.467,110.256c0.164,-0.752 0.41,-1.619 0.465,-2.049c0.27,-2.099 3.44,-4.312 9.461,-6.041c2.019,-0.58 4.391,-1.338 5.271,-1.684c5.177,-2.037 6.942,-6.443 4.654,-11.615c-0.573,-1.296 -1.042,-2.643 -1.042,-2.993c0,-1.074 2.221,-3.474 3.2,-3.509c1.604,-0.057 3.47,-2.699 3.47,-3.847c0,-0.86 -1.935,-0.782 -3.386,-0.441c0,0 -1.912,0.265 -2.536,2.111c-0.197,0.579 -0.086,0.853 -0.484,1.456c-0.397,0.603 -1.666,1.592 -2,2.137c-1.105,1.805 -1.032,3.325 0.059,5.73c0.454,0.999 0.829,2.42 0.834,3.158c0.012,1.822 -2.057,4.108 -4.754,5.252c-1.164,0.493 -4.128,1.892 -6.588,3.108c-5.382,2.661 -6.555,3.938 -7.069,7.698c-0.397,2.898 -0.231,3.467 0.445,1.529Z" style="fill-rule:nonzero;"/><path id="path2453" d="M97.5,78.382l0.993,-0.823l0.128,-0.536m-0.186,0.516l0.61,-0.17" style="fill:none;stroke:#000;stroke-width:0.42px;"/></g></g><g><path d="M141.668,96.401c0,-1.164 -0.945,-2.109 -2.109,-2.109l-4.217,0c-1.163,0 -2.108,0.945 -2.108,2.109l0,16.265c0,1.163 0.945,2.108 2.108,2.108l4.217,0c1.164,0 2.109,-0.945 2.109,-2.108l0,-16.265Z" style="fill:#659d63;"/><path d="M148.5,109.24c0,-1.031 -0.836,-1.868 -1.867,-1.868l-11.446,0c-1.031,0 -1.867,0.837 -1.867,1.868l0,3.735c0,1.031 0.836,1.867 1.867,1.867l11.446,0c1.031,0 1.867,-0.836 1.867,-1.867l0,-3.735Z" style="fill:#659d63;"/><path d="M167.277,112.081c0,-0.997 -0.809,-1.807 -1.807,-1.807l-3.614,0c-0.998,0 -1.807,0.81 -1.807,1.807l0,15.904c0,0.997 0.809,1.807 1.807,1.807l3.614,0c0.998,0 1.807,-0.81 1.807,-1.807l0,-15.904Z" style="fill:#659d63;"/><path d="M167.318,126.546c0,-1.097 -0.891,-1.987 -1.988,-1.987l-8.072,0c-1.097,0 -1.988,0.89 -1.988,1.987l0,3.976c0,1.098 0.891,1.988 1.988,1.988l8.072,0c1.097,0 1.988,-0.89 1.988,-1.988l0,-3.976Z" style="fill:#659d63;"/><path d="M156.995,93.572c0,-1.662 -1.349,-3.012 -3.012,-3.012l-6.024,0c-1.662,0 -3.012,1.35 -3.012,3.012l0,42.651c0,1.662 1.35,3.012 3.012,3.012l6.024,0c1.663,0 3.012,-1.35 3.012,-3.012l0,-42.651Z" style="fill:#659d63;"/></g></svg>