<?xml version="1.0" encoding="UTF-8" standalone="no"?><!DOCTYPE svg PUBLIC "-//W3C//DTD SVG 1.1//EN" "http://www.w3.org/Graphics/SVG/1.1/DTD/svg11.dtd"><svg width="100%" height="100%" viewBox="0 0 200 200" version="1.1" xmlns="http://www.w3.org/2000/svg" xmlns:xlink="http://www.w3.org/1999/xlink" xml:space="preserve" xmlns:serif="http://www.serif.com/" style="fill-rule:evenodd;clip-rule:evenodd;stroke-linejoin:round;stroke-miterlimit:1.41421;"><rect x="0" y="0" width="200" height="200" style="fill:#bba562;"/><g id="Barley"><path d="M176.348,27.016c0.139,-0.539 -0.186,-1.089 -0.725,-1.228l-1.953,-0.502c-0.539,-0.139 -1.089,0.186 -1.228,0.725l-26.418,102.656c-0.138,0.539 0.187,1.09 0.726,1.228l1.953,0.503c0.539,0.139 1.089,-0.186 1.228,-0.725l26.417,-102.657Z" style="fill:#9a7300;"/><g><g><path d="M190.901,38.002c0,0 -15.53,2.513 -19.33,6.39c-3.605,3.677 -3.547,9.589 0.131,13.194c3.677,3.605 9.589,3.547 13.194,-0.131c3.801,-3.876 6.005,-19.453 6.005,-19.453Z" style="fill:#9a7300;"/><path d="M165.071,64.35c0,0 15.53,-2.513 19.33,-6.39c3.605,-3.677 3.547,-9.59 -0.131,-13.195c-3.677,-3.605 -9.589,-3.546 -13.194,0.131c-3.801,3.877 -6.005,19.454 -6.005,19.454Z" style="fill:#9a7300;"/></g><g><path d="M185.664,62.956c0,0 -15.53,2.514 -19.33,6.39c-3.605,3.678 -3.547,9.59 0.131,13.195c3.677,3.605 9.589,3.546 13.194,-0.131c3.801,-3.877 6.005,-19.454 6.005,-19.454Z" style="fill:#9a7300;"/><path d="M159.834,89.305c0,0 15.53,-2.514 19.33,-6.39c3.605,-3.678 3.547,-9.59 -0.131,-13.195c-3.677,-3.605 -9.589,-3.546 -13.194,0.131c-3.801,3.877 -6.005,19.454 -6.005,19.454Z" style="fill:#9a7300;"/></g><g><path d="M179.367,88.349c0,0 -15.531,2.514 -19.331,6.39c-3.605,3.677 -3.546,9.59 0.131,13.195c3.677,3.605 9.59,3.546 13.195,-0.131c3.8,-3.877 6.005,-19.454 6.005,-19.454Z" style="fill:#9a7300;"/><path d="M153.536,114.697c0,0 15.531,-2.513 19.331,-6.39c3.605,-3.677 3.546,-9.589 -0.131,-13.194c-3.677,-3.605 -9.59,-3.546 -13.195,0.131c-3.8,3.876 -6.005,19.453 -6.005,19.453Z" style="fill:#9a7300;"/></g></g><g><g><path d="M154.252,29.044c0,0 12.388,9.698 13.845,14.928c1.382,4.96 -1.524,10.11 -6.484,11.492c-4.961,1.382 -10.11,-1.523 -11.493,-6.484c-1.457,-5.229 4.132,-19.936 4.132,-19.936Z" style="fill:#9a7300;"/><path d="M164.155,64.588c0,0 -12.388,-9.698 -13.845,-14.927c-1.382,-4.961 1.523,-10.11 6.484,-11.492c4.961,-1.382 10.11,1.523 11.492,6.484c1.457,5.229 -4.131,19.935 -4.131,19.935Z" style="fill:#9a7300;"/></g><g><path d="M146.792,53.427c0,0 12.388,9.698 13.845,14.927c1.382,4.961 -1.523,10.111 -6.484,11.493c-4.96,1.382 -10.11,-1.523 -11.492,-6.484c-1.457,-5.23 4.131,-19.936 4.131,-19.936Z" style="fill:#9a7300;"/><path d="M156.696,88.971c0,0 -12.388,-9.698 -13.845,-14.927c-1.382,-4.961 1.523,-10.11 6.484,-11.493c4.96,-1.382 10.11,1.524 11.492,6.484c1.457,5.23 -4.131,19.936 -4.131,19.936Z" style="fill:#9a7300;"/></g><g><path d="M140.05,78.705c0,0 12.388,9.698 13.845,14.928c1.382,4.96 -1.523,10.11 -6.484,11.492c-4.96,1.382 -10.11,-1.523 -11.492,-6.484c-1.457,-5.229 4.131,-19.936 4.131,-19.936Z" style="fill:#9a7300;"/><path d="M149.953,114.249c0,0 -12.387,-9.697 -13.844,-14.927c-1.382,-4.961 1.523,-10.11 6.484,-11.492c4.96,-1.382 10.11,1.523 11.492,6.484c1.457,5.229 -4.132,19.935 -4.132,19.935Z" style="fill:#9a7300;"/></g></g><g><path d="M176.282,16.739c0,0 6.338,14.399 5.152,19.697c-1.125,5.025 -6.118,8.191 -11.143,7.066c-5.026,-1.125 -8.192,-6.118 -7.067,-11.143c1.186,-5.298 13.058,-15.62 13.058,-15.62Z" style="fill:#9a7300;"/><path d="M168.221,52.745c0,0 -6.338,-14.399 -5.152,-19.696c1.125,-5.026 6.119,-8.192 11.144,-7.067c5.025,1.125 8.191,6.118 7.066,11.143c-1.185,5.298 -13.058,15.62 -13.058,15.62Z" style="fill:#9a7300;"/></g></g><g id="Barley1" serif:id="Barley"><path d="M83.848,133.065c-0.543,-0.206 -1.151,0.067 -1.358,0.61l-0.747,1.969c-0.207,0.543 0.067,1.151 0.61,1.358l103.448,39.3c0.543,0.207 1.152,-0.067 1.358,-0.61l0.748,-1.968c0.206,-0.544 -0.067,-1.152 -0.611,-1.359l-103.448,-39.3Z" style="fill:#9a7300;"/><g><g><path d="M96.932,119.239c0,0 0.809,16.404 4.39,20.796c3.398,4.166 9.539,4.79 13.705,1.392c4.166,-3.397 4.79,-9.538 1.393,-13.704c-3.582,-4.392 -19.488,-8.484 -19.488,-8.484Z" style="fill:#9a7300;"/><path d="M121.277,149.09c0,0 -0.809,-16.404 -4.391,-20.796c-3.398,-4.166 -9.538,-4.79 -13.705,-1.392c-4.166,3.397 -4.79,9.538 -1.392,13.705c3.581,4.392 19.488,8.483 19.488,8.483Z" style="fill:#9a7300;"/></g><g><path d="M122.216,127.563c0,0 0.809,16.404 4.391,20.796c3.397,4.166 9.538,4.79 13.705,1.393c4.166,-3.398 4.79,-9.539 1.392,-13.705c-3.582,-4.392 -19.488,-8.484 -19.488,-8.484Z" style="fill:#9a7300;"/><path d="M146.561,157.415c0,0 -0.809,-16.404 -4.39,-20.796c-3.398,-4.167 -9.539,-4.791 -13.705,-1.393c-4.167,3.398 -4.791,9.539 -1.393,13.705c3.582,4.392 19.488,8.484 19.488,8.484Z" style="fill:#9a7300;"/></g><g><path d="M147.832,137.038c0,0 0.809,16.404 4.391,20.796c3.397,4.167 9.538,4.791 13.705,1.393c4.166,-3.398 4.79,-9.539 1.392,-13.705c-3.582,-4.392 -19.488,-8.484 -19.488,-8.484Z" style="fill:#9a7300;"/><path d="M172.177,166.89c0,0 -0.809,-16.404 -4.39,-20.796c-3.398,-4.166 -9.539,-4.79 -13.705,-1.393c-4.167,3.398 -4.791,9.539 -1.393,13.705c3.582,4.392 19.488,8.484 19.488,8.484Z" style="fill:#9a7300;"/></g></g><g><g><path d="M83.393,156.226c0,0 11.497,-11.73 17.091,-12.635c5.307,-0.86 10.313,2.751 11.172,8.058c0.86,5.307 -2.751,10.313 -8.058,11.172c-5.594,0.906 -20.205,-6.595 -20.205,-6.595Z" style="fill:#9a7300;"/><path d="M121.418,150.068c0,0 -11.497,11.73 -17.092,12.635c-5.306,0.86 -10.313,-2.751 -11.172,-8.058c-0.859,-5.307 2.752,-10.313 8.058,-11.172c5.595,-0.906 20.206,6.595 20.206,6.595Z" style="fill:#9a7300;"/></g><g><path d="M107.826,166.789c0,0 11.497,-11.729 17.092,-12.635c5.307,-0.859 10.313,2.752 11.172,8.059c0.859,5.307 -2.751,10.313 -8.058,11.172c-5.595,0.906 -20.206,-6.596 -20.206,-6.596Z" style="fill:#9a7300;"/><path d="M145.851,160.632c0,0 -11.496,11.729 -17.091,12.635c-5.307,0.86 -10.313,-2.751 -11.172,-8.058c-0.86,-5.307 2.751,-10.313 8.058,-11.173c5.595,-0.905 20.205,6.596 20.205,6.596Z" style="fill:#9a7300;"/></g><g><path d="M133.272,176.713c0,0 11.497,-11.729 17.091,-12.635c5.307,-0.86 10.314,2.751 11.173,8.058c0.859,5.307 -2.752,10.313 -8.059,11.173c-5.594,0.905 -20.205,-6.596 -20.205,-6.596Z" style="fill:#9a7300;"/><path d="M171.297,170.555c0,0 -11.497,11.73 -17.091,12.636c-5.307,0.859 -10.313,-2.752 -11.173,-8.059c-0.859,-5.307 2.752,-10.313 8.059,-11.172c5.594,-0.906 20.205,6.595 20.205,6.595Z" style="fill:#9a7300;"/></g></g><g><path d="M73.178,131.943c0,0 15.673,-4.907 21.032,-3.063c5.084,1.749 7.791,7.296 6.041,12.38c-1.749,5.083 -7.296,7.79 -12.38,6.041c-5.359,-1.844 -14.693,-15.358 -14.693,-15.358Z" style="fill:#9a7300;"/><path d="M109.601,144.478c0,0 -15.673,4.907 -21.032,3.063c-5.084,-1.749 -7.79,-7.297 -6.041,-12.38c1.749,-5.084 7.297,-7.79 12.38,-6.041c5.359,1.844 14.693,15.358 14.693,15.358Z" style="fill:#9a7300;"/></g></g><g id="Barley2" serif:id="Barley"><path d="M124.814,55.319c0.627,0.164 1.269,-0.213 1.432,-0.839l0.592,-2.272c0.164,-0.627 -0.212,-1.268 -0.839,-1.432l-119.382,-31.129c-0.627,-0.163 -1.269,0.213 -1.432,0.84l-0.592,2.272c-0.164,0.626 0.212,1.268 0.839,1.431l119.382,31.129Z" style="fill:#9a7300;"/><g><g><path d="M111.974,72.216c0,0 -2.867,-18.085 -7.365,-22.522c-4.267,-4.21 -11.148,-4.163 -15.358,0.103c-4.209,4.267 -4.163,11.148 0.104,15.358c4.498,4.437 22.619,7.061 22.619,7.061Z" style="fill:#9a7300;"/><path d="M81.404,42.055c0,0 2.868,18.084 7.365,22.522c4.267,4.209 11.148,4.163 15.358,-0.104c4.209,-4.266 4.163,-11.147 -0.104,-15.357c-4.497,-4.438 -22.619,-7.061 -22.619,-7.061Z" style="fill:#9a7300;"/></g><g><path d="M82.949,66.028c0,0 -2.867,-18.085 -7.365,-22.522c-4.267,-4.21 -11.148,-4.163 -15.357,0.103c-4.21,4.267 -4.164,11.148 0.103,15.358c4.498,4.437 22.619,7.061 22.619,7.061Z" style="fill:#9a7300;"/><path d="M52.379,35.866c0,0 2.868,18.085 7.365,22.523c4.267,4.209 11.148,4.163 15.358,-0.104c4.209,-4.266 4.163,-11.148 -0.104,-15.357c-4.497,-4.438 -22.619,-7.062 -22.619,-7.062Z" style="fill:#9a7300;"/></g><g><path d="M53.419,58.604c0,0 -2.868,-18.085 -7.366,-22.522c-4.266,-4.21 -11.148,-4.164 -15.357,0.103c-4.21,4.266 -4.163,11.148 0.103,15.357c4.498,4.438 22.62,7.062 22.62,7.062Z" style="fill:#9a7300;"/><path d="M22.848,28.442c0,0 2.868,18.085 7.365,22.523c4.267,4.209 11.148,4.163 15.358,-0.104c4.209,-4.266 4.163,-11.148 -0.103,-15.357c-4.498,-4.438 -22.62,-7.062 -22.62,-7.062Z" style="fill:#9a7300;"/></g></g><g><g><path d="M122.536,29.594c0,0 -11.333,14.382 -17.425,16.058c-5.779,1.59 -11.762,-1.81 -13.352,-7.589c-1.59,-5.779 1.811,-11.762 7.589,-13.352c6.092,-1.676 23.188,4.883 23.188,4.883Z" style="fill:#9a7300;"/><path d="M81.13,40.988c0,0 11.333,-14.382 17.425,-16.059c5.779,-1.59 11.762,1.811 13.352,7.59c1.59,5.778 -1.811,11.761 -7.589,13.351c-6.092,1.677 -23.188,-4.882 -23.188,-4.882Z" style="fill:#9a7300;"/></g><g><path d="M94.185,20.821c0,0 -11.333,14.382 -17.425,16.058c-5.779,1.591 -11.762,-1.81 -13.352,-7.589c-1.59,-5.779 1.811,-11.761 7.589,-13.352c6.092,-1.676 23.188,4.883 23.188,4.883Z" style="fill:#9a7300;"/><path d="M52.779,32.215c0,0 11.333,-14.382 17.425,-16.058c5.779,-1.59 11.762,1.81 13.352,7.589c1.59,5.779 -1.811,11.761 -7.589,13.352c-6.092,1.676 -23.188,-4.883 -23.188,-4.883Z" style="fill:#9a7300;"/></g><g><path d="M64.789,12.88c0,0 -11.333,14.382 -17.425,16.058c-5.779,1.591 -11.762,-1.81 -13.352,-7.589c-1.59,-5.779 1.811,-11.761 7.589,-13.352c6.092,-1.676 23.188,4.883 23.188,4.883Z" style="fill:#9a7300;"/><path d="M23.383,24.274c0,0 11.333,-14.382 17.425,-16.058c5.779,-1.59 11.762,1.81 13.352,7.589c1.59,5.779 -1.811,11.761 -7.589,13.352c-6.092,1.676 -23.188,-4.883 -23.188,-4.883Z" style="fill:#9a7300;"/></g></g><g><path d="M136.776,55.28c0,0 -16.783,7.323 -22.944,5.923c-5.844,-1.328 -9.511,-7.151 -8.183,-12.996c1.328,-5.844 7.151,-9.511 12.996,-8.183c6.161,1.4 18.131,15.256 18.131,15.256Z" style="fill:#9a7300;"/><path d="M94.899,45.764c0,0 16.782,-7.323 22.944,-5.922c5.844,1.328 9.511,7.151 8.183,12.995c-1.328,5.845 -7.151,9.512 -12.996,8.184c-6.161,-1.4 -18.131,-15.257 -18.131,-15.257Z" style="fill:#9a7300;"/></g></g><g id="Barley3" serif:id="Barley"><path d="M54.831,93.779c0.16,-0.393 -0.029,-0.843 -0.422,-1.003l-1.426,-0.581c-0.393,-0.16 -0.842,0.029 -1.003,0.423l-30.518,74.905c-0.161,0.393 0.029,0.842 0.422,1.003l1.425,0.58c0.393,0.16 0.843,-0.029 1.003,-0.422l30.519,-74.905Z" style="fill:#9a7300;"/><g><g><path d="M64.706,103.58c0,0 -12.001,0.305 -15.272,2.846c-3.104,2.41 -3.667,6.886 -1.257,9.99c2.411,3.103 6.887,3.666 9.99,1.256c3.272,-2.541 6.539,-14.092 6.539,-14.092Z" style="fill:#9a7300;"/><path d="M42.469,120.849c0,0 12.001,-0.306 15.272,-2.846c3.104,-2.41 3.667,-6.887 1.257,-9.99c-2.41,-3.104 -6.887,-3.667 -9.99,-1.256c-3.272,2.54 -6.539,14.092 -6.539,14.092Z" style="fill:#9a7300;"/></g><g><path d="M58.183,121.91c0,0 -12.001,0.305 -15.272,2.846c-3.104,2.41 -3.667,6.886 -1.257,9.99c2.411,3.103 6.887,3.666 9.99,1.256c3.272,-2.54 6.539,-14.092 6.539,-14.092Z" style="fill:#9a7300;"/><path d="M35.946,139.179c0,0 12.001,-0.305 15.272,-2.846c3.104,-2.41 3.667,-6.886 1.257,-9.99c-2.41,-3.103 -6.887,-3.666 -9.99,-1.256c-3.272,2.541 -6.539,14.092 -6.539,14.092Z" style="fill:#9a7300;"/></g><g><path d="M50.813,140.463c0,0 -12,0.305 -15.272,2.846c-3.104,2.41 -3.666,6.886 -1.256,9.99c2.41,3.103 6.886,3.666 9.99,1.256c3.271,-2.541 6.538,-14.092 6.538,-14.092Z" style="fill:#9a7300;"/><path d="M28.576,157.731c0,0 12.001,-0.305 15.273,-2.845c3.103,-2.41 3.666,-6.887 1.256,-9.99c-2.41,-3.104 -6.887,-3.667 -9.99,-1.257c-3.272,2.541 -6.539,14.092 -6.539,14.092Z" style="fill:#9a7300;"/></g></g><g><g><path d="M37.915,93.043c0,0 8.371,8.605 8.935,12.708c0.536,3.893 -2.19,7.488 -6.083,8.024c-3.892,0.535 -7.488,-2.191 -8.023,-6.083c-0.565,-4.104 5.171,-14.649 5.171,-14.649Z" style="fill:#9a7300;"/><path d="M41.752,120.935c0,0 -8.37,-8.605 -8.935,-12.709c-0.535,-3.893 2.191,-7.488 6.083,-8.023c3.893,-0.536 7.488,2.19 8.024,6.083c0.564,4.103 -5.172,14.649 -5.172,14.649Z" style="fill:#9a7300;"/></g><g><path d="M29.771,110.712c0,0 8.37,8.605 8.935,12.709c0.535,3.893 -2.191,7.488 -6.083,8.023c-3.893,0.536 -7.488,-2.19 -8.024,-6.083c-0.564,-4.103 5.172,-14.649 5.172,-14.649Z" style="fill:#9a7300;"/><path d="M33.608,138.604c0,0 -8.371,-8.605 -8.935,-12.708c-0.536,-3.893 2.19,-7.488 6.083,-8.024c3.892,-0.535 7.488,2.19 8.023,6.083c0.565,4.104 -5.171,14.649 -5.171,14.649Z" style="fill:#9a7300;"/></g><g><path d="M22.077,129.133c0,0 8.37,8.605 8.934,12.708c0.536,3.893 -2.19,7.488 -6.083,8.024c-3.892,0.535 -7.487,-2.191 -8.023,-6.083c-0.564,-4.104 5.172,-14.649 5.172,-14.649Z" style="fill:#9a7300;"/><path d="M25.913,157.025c0,0 -8.37,-8.605 -8.934,-12.709c-0.536,-3.893 2.19,-7.488 6.083,-8.023c3.892,-0.536 7.487,2.19 8.023,6.083c0.564,4.103 -5.172,14.649 -5.172,14.649Z" style="fill:#9a7300;"/></g></g><g><path d="M55.836,86.001c0,0 3.313,11.539 1.873,15.422c-1.367,3.684 -5.468,5.566 -9.152,4.199c-3.684,-1.367 -5.565,-5.468 -4.198,-9.152c1.44,-3.883 11.477,-10.469 11.477,-10.469Z" style="fill:#9a7300;"/><path d="M46.043,112.398c0,0 -3.313,-11.538 -1.872,-15.422c1.367,-3.684 5.467,-5.565 9.151,-4.199c3.684,1.367 5.566,5.468 4.199,9.152c-1.441,3.884 -11.478,10.469 -11.478,10.469Z" style="fill:#9a7300;"/></g></g></svg>