<?xml version="1.0" encoding="UTF-8" standalone="no"?><!DOCTYPE svg PUBLIC "-//W3C//DTD SVG 1.1//EN" "http://www.w3.org/Graphics/SVG/1.1/DTD/svg11.dtd"><svg width="100%" height="100%" viewBox="0 0 200 200" version="1.1" xmlns="http://www.w3.org/2000/svg" xmlns:xlink="http://www.w3.org/1999/xlink" xml:space="preserve" xmlns:serif="http://www.serif.com/" style="fill-rule:evenodd;clip-rule:evenodd;stroke-linecap:round;stroke-linejoin:round;stroke-miterlimit:1.5;"><rect x="0" y="0" width="200" height="200" style="fill:#929292;"/><path d="M-13.826,98.414l-5.602,-10.618l-1.159,0.129l-1.61,-3.797l-2.833,-3.603l-2.059,0.386l-2.64,-2.895l-3.254,-11.488l-2.772,-15.639l0.449,-7.016l1.994,-2.897l2.059,-2.317l3.025,-0.967l9.783,0.641l20.519,-3.477l12.193,-2.141l4.4,0.125l4.023,1.507l2.012,3.268l5.029,3.015l2.892,3.645l4.903,1.13l3.145,7.164l3.648,7.668l2.265,7.29l-3.645,2.641l3.647,6.159l1.636,5.153l-4.273,4.527l-6.033,1.761l-3.142,4.15l0.253,5.279l0.001,5.28l0.128,6.663l-4.901,4.904l-5.531,1.258l-8.422,0.883l-5.155,-2.89l-7.669,-2.135l-8.047,-6.032l-4.526,-2.764l-3.269,-2.262l-1.462,-1.688Z" style="fill:url(#_Linear1);stroke:#000;stroke-width:1px;"/><path d="M62.095,63.484l-2.269,-6.174l-2.492,-6.538l-2.054,-3.352l-2.833,-4.048l-1.838,-10.28l-7.528,-6.673c-5.72,-6.799 -22.687,-41.162 -10.587,-35.933c15.097,-14.819 85.301,-93.155 47.992,-24.569l-38.093,30.137l1.994,-2.897l2.059,-2.318l3.025,-0.966l9.783,0.641l20.518,-3.478l12.193,-2.14l4.4,0.124l4.023,1.508l2.013,3.267l5.029,3.016l2.892,3.645l4.903,1.13l3.145,7.164l3.648,7.667l2.264,7.291l3.973,6.48l7.049,3.716l-1.238,9.969l-2.226,3.301l-3.559,3.886l-2.81,6.782l-3.517,7.049l-7.855,4.776l-7.578,2.567l-9.341,-1.79l-6.735,-0.301l-4.216,4.916l-8.385,0.504l-4.27,-8.032l-4.748,0.125l-4.38,3.071l-2.351,-3.243Z" style="fill:url(#_Linear2);stroke:#000;stroke-width:1px;"/><path d="M97.067,144.095l-5.602,-10.619l-1.159,0.13l-1.61,-3.797l-2.833,-3.604l-2.059,0.387l-2.64,-2.896l-3.254,-11.487l-2.772,-15.64l0.449,-7.015l1.994,-2.897l2.059,-2.318l3.025,-0.966l9.783,0.641l20.519,-3.478l12.193,-2.14l4.4,0.124l4.023,1.508l2.012,3.267l5.029,3.016l2.893,3.645l4.902,1.13l3.145,7.164l3.648,7.667l2.265,7.291l-3.645,2.64l3.647,6.159l1.636,5.154l-4.273,4.526l-6.033,1.762l-3.142,4.149l0.253,5.28l0.002,5.28l0.127,6.662l-4.901,4.904l-5.531,1.259l-8.422,0.882l-5.155,-2.89l-7.669,-2.134l-8.047,-6.032l-4.526,-2.764l-3.269,-2.262l-1.462,-1.688Z" style="fill:url(#_Linear3);stroke:#000;stroke-width:1px;"/><path d="M138.067,215.178l-5.602,-10.618l-1.159,0.129l-1.61,-3.797l-2.833,-3.604l-2.059,0.387l-2.64,-2.895l5.212,-8.016l9.608,-1.941l5.531,-4.748l4.761,-5.48l7.7,-2.137l7.324,-5.213l3.165,-7.002l3.011,-6.82l6.107,-2.312l2.012,3.268l5.029,3.015l2.893,3.645l4.902,1.13l3.145,7.164l3.648,7.667l2.265,7.291l-1.214,4.03l1.216,4.769l1.636,5.154l-4.273,4.527l-6.033,1.761l-3.142,4.15l0.253,5.279l0.002,5.28l0.127,6.662l-4.901,4.904l-5.531,1.259l-8.422,0.882l-5.155,-2.889l-7.669,-2.135l-8.047,-6.032l-4.526,-2.764l-3.269,-2.262l-1.462,-1.688Z" style="fill:url(#_Linear4);stroke:#000;stroke-width:1px;"/><path d="M166.776,18.692l-8.025,2.715l-5.578,-0.889l-6.936,-3.649l-5.388,-3.796l-2.833,-3.604l-4.948,-4.058l-4.418,-8.451l73.335,-0.292l0.534,31.865l-5.616,-4.959l-6.71,-0.446l-5.608,-1.659l-7.967,-3.494l-5.492,-0.706l-4.35,1.423Z" style="fill:url(#_Linear5);stroke:#000;stroke-width:1px;"/><path d="M183.053,116.734l-5.602,-10.619l-1.159,0.129l-1.61,-3.796l-2.833,-3.604l-2.059,0.387l-2.64,-2.896l-3.253,-11.488l-2.773,-15.639l0.449,-7.015l1.994,-2.897l2.059,-2.318l3.025,-0.966l9.783,0.641l20.519,-3.478l12.193,-2.14l4.4,0.124l4.023,1.507l2.012,3.268l5.029,3.016l2.893,3.645l4.903,1.13l3.144,7.164l3.648,7.667l2.265,7.29l-3.645,2.641l3.647,6.159l1.636,5.154l-4.273,4.526l-6.033,1.762l-3.142,4.149l0.253,5.28l0.002,5.28l0.127,6.662l-4.901,4.904l-5.531,1.259l-8.422,0.882l-5.155,-2.89l-7.668,-2.135l-8.047,-6.031l-4.527,-2.765l-3.269,-2.261l-1.462,-1.688Z" style="fill:url(#_Linear6);stroke:#000;stroke-width:1px;"/><path d="M138.067,215.178l-5.602,-10.618l-1.159,0.129l-1.61,-3.797l-2.833,-3.604l-2.059,0.387l-2.64,-2.895l5.212,-8.016l9.608,-1.941l5.531,-4.748l4.761,-5.48l7.7,-2.137l7.324,-5.213l3.165,-7.002l3.011,-6.82l6.107,-2.312l2.012,3.268l5.029,3.015l2.893,3.645l4.902,1.13l3.145,7.164l3.648,7.667l2.265,7.291l-1.214,4.03l1.216,4.769l1.636,5.154l-4.273,4.527l-6.033,1.761l-3.142,4.15l0.253,5.279l0.002,5.28l0.127,6.662l-4.901,4.904l-5.531,1.259l-8.422,0.882l-5.155,-2.889l-7.669,-2.135l-8.047,-6.032l-4.526,-2.764l-3.269,-2.262l-1.462,-1.688Z" style="fill:url(#_Linear7);stroke:#000;stroke-width:1px;"/><path d="M138.067,215.178l-5.602,-10.618l-1.159,0.129l-1.61,-3.797l-2.833,-3.604l-2.059,0.387l-2.64,-2.895l5.212,-8.016l9.608,-1.941l5.531,-4.748l4.761,-5.48l7.7,-2.137l7.324,-5.213l3.165,-7.002l3.011,-6.82l6.107,-2.312l2.012,3.268l5.029,3.015l2.893,3.645l4.902,1.13l3.145,7.164l3.648,7.667l2.265,7.291l-1.214,4.03l1.216,4.769l1.636,5.154l-4.273,4.527l-6.033,1.761l-3.142,4.15l0.253,5.279l0.002,5.28l0.127,6.662l-4.901,4.904l-5.531,1.259l-8.422,0.882l-5.155,-2.889l-7.669,-2.135l-8.047,-6.032l-4.526,-2.764l-3.269,-2.262l-1.462,-1.688Z" style="fill:url(#_Linear8);stroke:#000;stroke-width:1px;"/><path d="M52.052,188.438l-4.176,-3.235l-5.388,-4.019l-5.756,1.961l-6.494,3.824l-9.52,1.12l-3.831,-8.636l0.665,-4.893l0.862,-6.336l2.649,-11.14l2.089,-8.695l0.449,-7.016l1.994,-2.897l2.059,-2.317l3.025,-0.967l9.783,0.641l14.297,7.189l6.193,-2.807l12.177,0.125l7.134,3.729l5.568,7.935l1.252,7.015l1.559,5.867l1.022,3.439l-3.675,3.469l2.277,4.883l3.979,2.059l4.092,1.445l6.043,-0.487l2.799,2.418l2.905,4.044l0.772,5.795l-5.589,5.317l-5.586,-2.073l-5.525,-1.831l-3.429,2.363l-4.886,0.301l-5.346,-1.818l-7.711,-2.297l-12.075,-2.103l-2.947,-3.654l-3.71,2.282Z" style="fill:url(#_Linear9);stroke:#000;stroke-width:1px;"/><defs><linearGradient id="_Linear1" x1="0" y1="0" x2="1" y2="0" gradientUnits="userSpaceOnUse" gradientTransform="matrix(31.6679,-36.7157,36.7157,31.6679,-87.0301,115.711)"><stop offset="0" style="stop-color:#fff;stop-opacity:1"/><stop offset="1" style="stop-color:#7a7a7b;stop-opacity:1"/><stop offset="1" style="stop-color:#676767;stop-opacity:1"/></linearGradient><linearGradient id="_Linear2" x1="0" y1="0" x2="1" y2="0" gradientUnits="userSpaceOnUse" gradientTransform="matrix(31.6679,-36.7157,36.7157,31.6679,-9.33133,67.8919)"><stop offset="0" style="stop-color:#fff;stop-opacity:1"/><stop offset="1" style="stop-color:#7a7a7b;stop-opacity:1"/><stop offset="1" style="stop-color:#676767;stop-opacity:1"/></linearGradient><linearGradient id="_Linear3" x1="0" y1="0" x2="1" y2="0" gradientUnits="userSpaceOnUse" gradientTransform="matrix(31.6679,-36.7157,36.7157,31.6679,23.8631,161.392)"><stop offset="0" style="stop-color:#fff;stop-opacity:1"/><stop offset="1" style="stop-color:#7a7a7b;stop-opacity:1"/><stop offset="1" style="stop-color:#676767;stop-opacity:1"/></linearGradient><linearGradient id="_Linear4" x1="0" y1="0" x2="1" y2="0" gradientUnits="userSpaceOnUse" gradientTransform="matrix(31.6679,-36.7157,36.7157,31.6679,64.8631,232.475)"><stop offset="0" style="stop-color:#fff;stop-opacity:1"/><stop offset="1" style="stop-color:#7a7a7b;stop-opacity:1"/><stop offset="1" style="stop-color:#676767;stop-opacity:1"/></linearGradient><linearGradient id="_Linear5" x1="0" y1="0" x2="1" y2="0" gradientUnits="userSpaceOnUse" gradientTransform="matrix(31.6679,-36.7157,36.7157,31.6679,80.4603,41.7669)"><stop offset="0" style="stop-color:#fff;stop-opacity:1"/><stop offset="1" style="stop-color:#7a7a7b;stop-opacity:1"/><stop offset="1" style="stop-color:#676767;stop-opacity:1"/></linearGradient><linearGradient id="_Linear6" x1="0" y1="0" x2="1" y2="0" gradientUnits="userSpaceOnUse" gradientTransform="matrix(31.6679,-36.7157,36.7157,31.6679,109.849,134.031)"><stop offset="0" style="stop-color:#fff;stop-opacity:1"/><stop offset="1" style="stop-color:#7a7a7b;stop-opacity:1"/><stop offset="1" style="stop-color:#676767;stop-opacity:1"/></linearGradient><linearGradient id="_Linear7" x1="0" y1="0" x2="1" y2="0" gradientUnits="userSpaceOnUse" gradientTransform="matrix(31.6679,-36.7157,36.7157,31.6679,64.8631,232.475)"><stop offset="0" style="stop-color:#fff;stop-opacity:1"/><stop offset="1" style="stop-color:#7a7a7b;stop-opacity:1"/><stop offset="1" style="stop-color:#676767;stop-opacity:1"/></linearGradient><linearGradient id="_Linear8" x1="0" y1="0" x2="1" y2="0" gradientUnits="userSpaceOnUse" gradientTransform="matrix(31.6679,-36.7157,36.7157,31.6679,64.8631,232.475)"><stop offset="0" style="stop-color:#fff;stop-opacity:1"/><stop offset="1" style="stop-color:#7a7a7b;stop-opacity:1"/><stop offset="1" style="stop-color:#676767;stop-opacity:1"/></linearGradient><linearGradient id="_Linear9" x1="0" y1="0" x2="1" y2="0" gradientUnits="userSpaceOnUse" gradientTransform="matrix(31.6679,-36.7157,36.7157,31.6679,-28.123,213.211)"><stop offset="0" style="stop-color:#fff;stop-opacity:1"/><stop offset="1" style="stop-color:#7a7a7b;stop-opacity:1"/><stop offset="1" style="stop-color:#676767;stop-opacity:1"/></linearGradient></defs></svg>