<?xml version="1.0" encoding="UTF-8" standalone="no"?><!DOCTYPE svg PUBLIC "-//W3C//DTD SVG 1.1//EN" "http://www.w3.org/Graphics/SVG/1.1/DTD/svg11.dtd"><svg width="100%" height="100%" viewBox="0 0 200 200" version="1.1" xmlns="http://www.w3.org/2000/svg" xmlns:xlink="http://www.w3.org/1999/xlink" xml:space="preserve" xmlns:serif="http://www.serif.com/" style="fill-rule:evenodd;clip-rule:evenodd;stroke-linejoin:round;stroke-miterlimit:1.41421;"><rect x="0" y="0" width="200" height="200" style="fill:#00c0e9;"/><g><path d="M-12.83,98.387c46.05,-66.398 135.007,-84.537 198.528,-40.483c63.521,44.055 77.705,133.728 31.656,200.125c-46.05,66.398 -135.007,84.537 -198.528,40.483c-63.521,-44.055 -77.705,-133.728 -31.656,-200.125Z" style="fill:#96c04a;"/><path d="M4.95,106.134c38.816,-55.968 115.737,-69.915 171.665,-31.126c55.928,38.789 69.822,115.719 31.006,171.686c-38.816,55.968 -115.737,69.915 -171.665,31.126c-55.928,-38.789 -69.822,-115.719 -31.006,-171.686Z" style="fill:#a5c67f;"/><path d="M17.441,119.746c34.842,-50.237 102.2,-63.925 150.324,-30.548c48.125,33.376 58.909,101.259 24.068,151.496c-34.842,50.237 -102.2,63.925 -150.324,30.549c-48.125,-33.377 -58.909,-101.26 -24.068,-151.497Z" style="fill:#fee38c;"/><path d="M33.734,128.62c28.689,-41.365 84.592,-52.33 124.76,-24.472c40.169,27.859 49.49,84.06 20.801,125.425c-28.688,41.364 -84.591,52.33 -124.76,24.471c-40.168,-27.859 -49.489,-84.06 -20.801,-125.424Z" style="fill:#fff8cb;"/></g><g><path d="M83.324,139.046c46.05,-66.397 135.007,-84.537 198.528,-40.482c63.521,44.054 77.705,133.727 31.656,200.124c-46.05,66.398 -135.007,84.538 -198.528,40.483c-63.521,-44.054 -77.705,-133.727 -31.656,-200.125Z" style="fill:#96c04a;"/><path d="M101.104,146.793c38.816,-55.968 115.736,-69.915 171.665,-31.126c55.928,38.789 69.821,115.719 31.006,171.687c-38.816,55.967 -115.737,69.914 -171.665,31.125c-55.929,-38.789 -69.822,-115.719 -31.006,-171.686Z" style="fill:#a5c67f;"/><path d="M113.595,160.405c34.842,-50.236 102.199,-63.925 150.324,-30.548c48.125,33.376 58.909,101.26 24.067,151.496c-34.841,50.237 -102.199,63.925 -150.323,30.549c-48.125,-33.377 -58.909,-101.26 -24.068,-151.497Z" style="fill:#fee38c;"/><path d="M129.888,169.279c28.688,-41.365 84.592,-52.33 124.76,-24.471c40.169,27.858 49.49,84.059 20.801,125.424c-28.688,41.365 -84.591,52.33 -124.76,24.471c-40.169,-27.859 -49.489,-84.059 -20.801,-125.424Z" style="fill:#fff8cb;"/></g><g><ellipse cx="-1.035" cy="194.692" rx="146.405" ry="140.062" style="fill:#96c04a;"/><ellipse cx="2.733" cy="196.975" rx="123.408" ry="123.321" style="fill:#a5c67f;"/><ellipse cx="-1.334" cy="197.79" rx="110.771" ry="106.114" style="fill:#fee38c;"/><ellipse cx="0.659" cy="198.692" rx="91.209" ry="88.571" style="fill:#fff8cb;"/></g></svg>